<svg width="41" height="40" viewBox="0 0 41 40" fill="none" xmlns="http://www.w3.org/2000/svg">
<path d="M9.08533 35.444L10.9933 38H9.80533L8.14933 35.768H6.88933V38H5.84533V32.96H6.88933V35.228H8.07733L9.73333 32.96H10.8853L9.08533 35.444ZM14.3062 33.32C14.0614 33.32 13.831 33.3632 13.615 33.4496C13.4038 33.536 13.219 33.668 13.0606 33.8456C12.9022 34.0232 12.775 34.2488 12.679 34.5224C12.5878 34.7912 12.5422 35.1104 12.5422 35.48C12.5422 35.8496 12.5878 36.1712 12.679 36.4448C12.775 36.7136 12.9022 36.9368 13.0606 37.1144C13.219 37.292 13.4038 37.424 13.615 37.5104C13.831 37.5968 14.0614 37.64 14.3062 37.64C14.551 37.64 14.779 37.5968 14.9902 37.5104C15.2062 37.424 15.3934 37.292 15.5518 37.1144C15.7102 36.9368 15.835 36.7136 15.9262 36.4448C16.0222 36.1712 16.0702 35.8496 16.0702 35.48C16.0702 35.1104 16.0222 34.7912 15.9262 34.5224C15.835 34.2488 15.7102 34.0232 15.5518 33.8456C15.3934 33.668 15.2062 33.536 14.9902 33.4496C14.779 33.3632 14.551 33.32 14.3062 33.32ZM14.3062 32.816C14.7382 32.816 15.1294 32.8736 15.4798 32.9888C15.835 33.104 16.1374 33.2744 16.387 33.5C16.6414 33.7256 16.8382 34.004 16.9774 34.3352C17.1166 34.6664 17.1862 35.048 17.1862 35.48C17.1862 35.912 17.1166 36.2936 16.9774 36.6248C16.8382 36.956 16.6414 37.2344 16.387 37.46C16.1374 37.6856 15.835 37.856 15.4798 37.9712C15.1294 38.0864 14.7382 38.144 14.3062 38.144C13.8742 38.144 13.4806 38.0864 13.1254 37.9712C12.7702 37.856 12.4654 37.6856 12.211 37.46C11.9614 37.2344 11.767 36.956 11.6278 36.6248C11.4934 36.2936 11.4262 35.912 11.4262 35.48C11.4262 35.048 11.4934 34.6664 11.6278 34.3352C11.767 34.004 11.9614 33.7256 12.211 33.5C12.4654 33.2744 12.7702 33.104 13.1254 32.9888C13.4806 32.8736 13.8742 32.816 14.3062 32.816ZM21.005 32.96C21.365 32.96 21.6866 33.0008 21.9698 33.0824C22.2578 33.1592 22.5002 33.2744 22.697 33.428C22.8938 33.5768 23.045 33.7616 23.1506 33.9824C23.2562 34.1984 23.309 34.4456 23.309 34.724C23.309 35.108 23.213 35.432 23.021 35.696C22.829 35.96 22.553 36.1616 22.193 36.3008L23.381 38H22.193L21.1346 36.488H21.005H19.457V38H18.413V32.96H21.005ZM19.457 33.5V35.948H21.005C21.3842 35.948 21.677 35.8496 21.8834 35.6528C22.0898 35.4512 22.193 35.1416 22.193 34.724C22.193 34.3064 22.0898 33.9992 21.8834 33.8024C21.677 33.6008 21.3842 33.5 21.005 33.5H19.457ZM27.1236 37.64C27.3588 37.64 27.57 37.6088 27.7572 37.5464C27.9492 37.4792 28.1124 37.3784 28.2468 37.244C28.3812 37.1048 28.4844 36.9296 28.5564 36.7184C28.6332 36.5024 28.6716 36.2456 28.6716 35.948V32.96H29.7156V35.948C29.7156 36.6872 29.49 37.2392 29.0388 37.604C28.5876 37.964 27.9492 38.144 27.1236 38.144C26.2932 38.144 25.6524 37.964 25.2012 37.604C24.7548 37.2392 24.5316 36.6872 24.5316 35.948V32.96H25.5756V35.948C25.5756 36.2456 25.6116 36.5024 25.6836 36.7184C25.7604 36.9296 25.866 37.1048 26.0004 37.244C26.1348 37.3784 26.2956 37.4792 26.4828 37.5464C26.6748 37.6088 26.8884 37.64 27.1236 37.64ZM35.5861 33.5H33.6421V38H32.5981V33.5H30.6541V32.96H35.5861V33.5Z" fill="black"/>
<path d="M8.80563 18.04V30.1L10.9656 30.64V31H3.58563V30.64L5.74563 30.1V6.7L3.58563 6.16V5.8H10.9656V6.16L8.80563 6.7V17.32H16.1856V6.7L14.0256 6.16V5.8H21.4056V6.16L19.2456 6.7V30.1L21.4056 30.64V31H14.0256V30.64L16.1856 30.1V18.04H8.80563ZM28.9642 30.28H35.4442C35.4442 29.272 35.6482 28.336 36.0562 27.472C36.4642 26.608 36.9802 25.864 37.6042 25.24H37.9642C37.9162 25.552 37.8802 25.876 37.8562 26.212C37.8322 26.5 37.8082 26.812 37.7842 27.148C37.7842 27.484 37.7842 27.808 37.7842 28.12C37.7842 28.576 37.7842 28.984 37.7842 29.344C37.8082 29.68 37.8322 29.98 37.8562 30.244C37.8802 30.532 37.9162 30.784 37.9642 31H23.7442V30.64L25.9042 30.1V6.7L23.7442 6.16V5.8H31.1242V6.16L28.9642 6.7V30.28Z" fill="black"/>
</svg>
